<svg width="24" height="28" viewBox="0 0 24 28" fill="none" xmlns="http://www.w3.org/2000/svg">
<path d="M13 2C13 1.44772 12.5523 1 12 1C11.4477 1 11 1.44772 11 2H13ZM11 10C11 10.5523 11.4477 11 12 11C12.5523 11 13 10.5523 13 10H11ZM22 14C22 20.7905 17.3728 26 12 26V28C18.7775 28 24 21.5689 24 14H22ZM12 26C6.62723 26 2 20.7905 2 14H0C0 21.5689 5.2225 28 12 28V26ZM2 14C2 7.20948 6.62723 2 12 2V0C5.2225 0 0 6.43112 0 14H2ZM12 2C17.3728 2 22 7.20948 22 14H24C24 6.43112 18.7775 0 12 0V2ZM22.4695 9H1.5V11H22.4695V9ZM11 2V10H13V2H11Z" fill="black"/>
</svg>
